<?xml version="1.0" standalone="no"?>
<!DOCTYPE svg PUBLIC "-//W3C//DTD SVG 20010904//EN"
 "http://www.w3.org/TR/2001/REC-SVG-20010904/DTD/svg10.dtd">
<svg version="1.0" xmlns="http://www.w3.org/2000/svg"
 width="616.000000pt" height="616.000000pt" viewBox="0 0 616.000000 616.000000"
 preserveAspectRatio="xMidYMid meet">
<metadata>
Created by potrace 1.14, written by Peter Selinger 2001-2017
</metadata>
<g transform="translate(0.000000,616.000000) scale(0.100000,-0.100000)"
fill="#000000" stroke="none">
<path d="M2859 6156 c-2 -2 -40 -6 -84 -10 -251 -21 -598 -107 -855 -213 -102
-42 -359 -169 -381 -189 -8 -8 -19 -14 -23 -14 -18 0 -241 -155 -356 -248
-645 -518 -1063 -1289 -1137 -2103 -10 -107 -10 -488 -1 -599 24 -268 126
-674 224 -887 13 -30 24 -56 24 -59 0 -3 30 -65 66 -137 479 -948 1395 -1579
2449 -1684 99 -10 494 -11 595 -1 681 65 1337 365 1825 837 144 139 226 230
324 361 31 41 58 77 61 80 11 10 118 177 157 245 200 347 318 688 384 1108 27
172 34 591 13 772 -46 389 -169 795 -331 1089 -23 43 -43 80 -43 83 0 2 -30
52 -67 111 -264 424 -612 767 -1033 1022 -366 221 -739 352 -1185 417 -98 14
-614 30 -626 19z"/>
</g>
</svg>
